<mxfile host="app.diagrams.net" agent="Mozilla/5.0 (Windows NT 10.0; Win64; x64) AppleWebKit/537.36 (KHTML, like Gecko) Chrome/133.0.0.0 Safari/537.36" version="26.0.16">
  <diagram name="Page-1" id="8Pruqyxau-jjmW_r_-h3">
    <mxGraphModel dx="1061" dy="534" grid="0" gridSize="10" guides="1" tooltips="1" connect="1" arrows="1" fold="1" page="0" pageScale="1" pageWidth="1654" pageHeight="1169" math="0" shadow="0">
      <root>
        <mxCell id="0" />
        <mxCell id="1" parent="0" />
        <mxCell id="tc_Ih369Eh2DQpu37YAK-1" value="Positive" style="rounded=1;whiteSpace=wrap;html=1;" vertex="1" parent="1">
          <mxGeometry y="122" width="120" height="60" as="geometry" />
        </mxCell>
        <mxCell id="tc_Ih369Eh2DQpu37YAK-2" value="PCEN" style="rounded=1;whiteSpace=wrap;html=1;" vertex="1" parent="1">
          <mxGeometry x="-129" y="182" width="70" height="28" as="geometry" />
        </mxCell>
        <mxCell id="tc_Ih369Eh2DQpu37YAK-3" value="LOGMEL" style="rounded=1;whiteSpace=wrap;html=1;" vertex="1" parent="1">
          <mxGeometry x="-129" y="216" width="70" height="28" as="geometry" />
        </mxCell>
        <mxCell id="tc_Ih369Eh2DQpu37YAK-4" value="MFCC" style="rounded=1;whiteSpace=wrap;html=1;" vertex="1" parent="1">
          <mxGeometry x="-129" y="250" width="70" height="28" as="geometry" />
        </mxCell>
        <mxCell id="tc_Ih369Eh2DQpu37YAK-5" value="BirdNET" style="rounded=1;whiteSpace=wrap;html=1;" vertex="1" parent="1">
          <mxGeometry x="-129" y="283" width="70" height="28" as="geometry" />
        </mxCell>
        <mxCell id="tc_Ih369Eh2DQpu37YAK-6" value="Negative" style="rounded=1;whiteSpace=wrap;html=1;" vertex="1" parent="1">
          <mxGeometry x="139" y="122" width="120" height="60" as="geometry" />
        </mxCell>
        <mxCell id="tc_Ih369Eh2DQpu37YAK-7" value="Query" style="rounded=1;whiteSpace=wrap;html=1;" vertex="1" parent="1">
          <mxGeometry x="278" y="122" width="120" height="60" as="geometry" />
        </mxCell>
        <mxCell id="tc_Ih369Eh2DQpu37YAK-8" value="Spectral&lt;br&gt;Feature" style="rounded=1;whiteSpace=wrap;html=1;" vertex="1" parent="1">
          <mxGeometry x="-129" y="316" width="70" height="28" as="geometry" />
        </mxCell>
        <mxCell id="tc_Ih369Eh2DQpu37YAK-10" value="" style="rounded=0;whiteSpace=wrap;html=1;" vertex="1" parent="1">
          <mxGeometry y="195" width="121" height="23" as="geometry" />
        </mxCell>
        <mxCell id="tc_Ih369Eh2DQpu37YAK-11" value="" style="rounded=0;whiteSpace=wrap;html=1;" vertex="1" parent="1">
          <mxGeometry x="139" y="195" width="121" height="23" as="geometry" />
        </mxCell>
        <mxCell id="tc_Ih369Eh2DQpu37YAK-12" value="" style="rounded=0;whiteSpace=wrap;html=1;" vertex="1" parent="1">
          <mxGeometry x="278" y="195" width="121" height="23" as="geometry" />
        </mxCell>
        <mxCell id="tc_Ih369Eh2DQpu37YAK-13" value="" style="shape=trapezoid;perimeter=trapezoidPerimeter;whiteSpace=wrap;html=1;fixedSize=1;rotation=-180;size=65.19610236672787;" vertex="1" parent="1">
          <mxGeometry x="410" y="240" width="313" height="60" as="geometry" />
        </mxCell>
        <mxCell id="tc_Ih369Eh2DQpu37YAK-14" value="Deep Neural Network&lt;br&gt;Embedding Model" style="text;strokeColor=none;fillColor=none;html=1;align=center;verticalAlign=middle;whiteSpace=wrap;rounded=0;fontSize=16;" vertex="1" parent="1">
          <mxGeometry x="451.5" y="255" width="230" height="30" as="geometry" />
        </mxCell>
      </root>
    </mxGraphModel>
  </diagram>
</mxfile>
